# xmcd
#
# Track frame offsets:
#	150
#	2418
#	18063
#	20061
#	35457
#	55324
#	70646
#	83704
#	97966
#	100373
#	122682
#	135557
#	152676
#	171765
#	190994
#	202471
#	221993
#	237584
#	248341
#	261004
#	271019
#
# Disc length: 3639 seconds
#
# Revision: 0
# Processed by: cddbd v1.5.2PL0 Copyright (c) Steve Scherf et al.
# Submitted via: audiograbber 1.83.01
#
DISCID=1a0e3515
DTITLE=Gloryland Gospel  - Gospel Songs
DYEAR=1900
DGENRE=Gospel
TTITLE0=Arron Anthony - Scooby Dooby Doo
TTITLE1=Joshua Anthony - Do You Know The Man
TTITLE2=Aaron Anthony - Go Johhny Go
TTITLE3=J.B. Jacobs - Come Spring
TTITLE4=J.B. Jacobs - He Gave More Than Love
TTITLE5=J.B. Jacobs - He Never Stopped Loving Me
TTITLE6=J.B. Jacobs - I Believe In A Hill Called Mount Calvary
TTITLE7=J.B. Jacobs - In The Garden
TTITLE8=Aaron Anthony - Jesus Loves Me
TTITLE9=J.B. Jacobs - Wayfaring Stranger
TTITLE10=J.B. Jacobs - Take Up Thy Cross
TTITLE11=J.B. Jacobs - Lead Me Home
TTITLE12=J.B. Jacobs - The Greatest Love Story
TTITLE13=J.B. Jacobs - Sweet Beulah Land
TTITLE14=J.B. Jacobs - A Little Spot In Heaven
TTITLE15=J.B. Jacobs - Look For Me
TTITLE16=J.B. Jacobs - Standing Somewhere In The Shadows
TTITLE17=Joshua Anthony  - Elvis Impersonation
TTITLE18=J.B. Jacobs - On The Wings Of A Dove
TTITLE19=Joshua Anthony - Lord Remember Me
TTITLE20=Aaron Anthony - Scooby Dooby Doo
EXTD=
EXTT0=
EXTT1=
EXTT2=
EXTT3=
EXTT4=
EXTT5=
EXTT6=
EXTT7=
EXTT8=
EXTT9=
EXTT10=
EXTT11=
EXTT12=
EXTT13=
EXTT14=
EXTT15=
EXTT16=
EXTT17=
EXTT18=
EXTT19=
EXTT20=
PLAYORDER=
